# xmcd
#
# Track frame offsets:
#	150
#	60230
#	88698
#	111064
#	156323
#	175019
#	219077
#	244121
#	276804
#	310184
#
# Disc length: 4703 seconds
#
# Revision: 1
# Processed by: cddbd v1.5.2PL0 Copyright (c) Steve Scherf et al.
# Submitted via: audiograbber 1.83.01
#
DISCID=7a125d0a
DTITLE=Grateful Dead - 74-07-29 Capital Centre, Landover MD
DYEAR=1900
DGENRE=
TTITLE0=He's Gone
TTITLE1=Truckin'
TTITLE2=Nobody't Fault But Mine Jam
TTITLE3=The Other One
TTITLE4=Spanish Jam
TTITLE5=Wharf Rat
TTITLE6=Around and Around
TTITLE7=Peggy-O
TTITLE8=US Blues
TTITLE9=Sugar Magnolia
EXTD=
EXTT0=
EXTT1=
EXTT2=
EXTT3=
EXTT4=
EXTT5=
EXTT6=
EXTT7=
EXTT8=
EXTT9=
PLAYORDER=
